<mxfile host="65bd71144e" modified="2021-02-22T16:34:24.620Z" agent="5.0 (Windows NT 10.0; Win64; x64) AppleWebKit/537.36 (KHTML, like Gecko) Code/1.53.2 Chrome/87.0.4280.141 Electron/11.2.1 Safari/537.36" etag="3T2S7ua2zh1knYdwwX5R" version="14.2.4" type="embed" pages="4">
    <diagram id="in8SWo6Db7BAiUL9mQn4" name="Pre-Refactor">
        <mxGraphModel dx="1081" dy="590" grid="1" gridSize="10" guides="1" tooltips="1" connect="1" arrows="1" fold="1" page="1" pageScale="1" pageWidth="1600" pageHeight="900" math="0" shadow="0">
            <root>
                <mxCell id="0"/>
                <mxCell id="1" parent="0"/>
                <mxCell id="6" style="edgeStyle=orthogonalEdgeStyle;rounded=0;orthogonalLoop=1;jettySize=auto;html=1;" parent="1" source="2" target="3" edge="1">
                    <mxGeometry relative="1" as="geometry"/>
                </mxCell>
                <mxCell id="13" style="edgeStyle=orthogonalEdgeStyle;rounded=0;orthogonalLoop=1;jettySize=auto;html=1;" parent="1" source="2" target="7" edge="1">
                    <mxGeometry relative="1" as="geometry"/>
                </mxCell>
                <mxCell id="2" value="Home" style="ellipse;whiteSpace=wrap;html=1;align=center;" parent="1" vertex="1">
                    <mxGeometry x="550" y="80" width="100" height="40" as="geometry"/>
                </mxCell>
                <mxCell id="3" value="BottomNavigationBar" style="ellipse;whiteSpace=wrap;html=1;align=center;" parent="1" vertex="1">
                    <mxGeometry x="720" y="80" width="130" height="40" as="geometry"/>
                </mxCell>
                <mxCell id="14" style="edgeStyle=orthogonalEdgeStyle;rounded=0;orthogonalLoop=1;jettySize=auto;html=1;" parent="1" source="7" target="8" edge="1">
                    <mxGeometry relative="1" as="geometry"/>
                </mxCell>
                <mxCell id="15" style="edgeStyle=orthogonalEdgeStyle;rounded=0;orthogonalLoop=1;jettySize=auto;html=1;" parent="1" source="7" target="9" edge="1">
                    <mxGeometry relative="1" as="geometry"/>
                </mxCell>
                <mxCell id="16" style="edgeStyle=orthogonalEdgeStyle;rounded=0;orthogonalLoop=1;jettySize=auto;html=1;" parent="1" source="7" target="10" edge="1">
                    <mxGeometry relative="1" as="geometry"/>
                </mxCell>
                <mxCell id="7" value="Map" style="ellipse;whiteSpace=wrap;html=1;align=center;" parent="1" vertex="1">
                    <mxGeometry x="550" y="180" width="100" height="40" as="geometry"/>
                </mxCell>
                <mxCell id="26" style="edgeStyle=orthogonalEdgeStyle;rounded=0;orthogonalLoop=1;jettySize=auto;html=1;" parent="1" source="8" target="24" edge="1">
                    <mxGeometry relative="1" as="geometry"/>
                </mxCell>
                <mxCell id="8" value="Mapbox" style="ellipse;whiteSpace=wrap;html=1;align=center;" parent="1" vertex="1">
                    <mxGeometry x="550" y="270" width="100" height="40" as="geometry"/>
                </mxCell>
                <mxCell id="21" style="edgeStyle=orthogonalEdgeStyle;rounded=0;orthogonalLoop=1;jettySize=auto;html=1;" parent="1" source="9" target="20" edge="1">
                    <mxGeometry relative="1" as="geometry"/>
                </mxCell>
                <mxCell id="22" style="edgeStyle=orthogonalEdgeStyle;rounded=0;orthogonalLoop=1;jettySize=auto;html=1;" parent="1" source="9" target="19" edge="1">
                    <mxGeometry relative="1" as="geometry"/>
                </mxCell>
                <mxCell id="9" value="RouteSelection" style="ellipse;whiteSpace=wrap;html=1;align=center;" parent="1" vertex="1">
                    <mxGeometry x="260" y="270" width="100" height="40" as="geometry"/>
                </mxCell>
                <mxCell id="17" style="edgeStyle=orthogonalEdgeStyle;rounded=0;orthogonalLoop=1;jettySize=auto;html=1;" parent="1" source="10" target="12" edge="1">
                    <mxGeometry relative="1" as="geometry"/>
                </mxCell>
                <mxCell id="18" style="edgeStyle=orthogonalEdgeStyle;rounded=0;orthogonalLoop=1;jettySize=auto;html=1;" parent="1" source="10" target="11" edge="1">
                    <mxGeometry relative="1" as="geometry"/>
                </mxCell>
                <mxCell id="10" value="Navigation" style="ellipse;whiteSpace=wrap;html=1;align=center;" parent="1" vertex="1">
                    <mxGeometry x="840" y="270" width="100" height="40" as="geometry"/>
                </mxCell>
                <mxCell id="29" style="edgeStyle=orthogonalEdgeStyle;rounded=0;orthogonalLoop=1;jettySize=auto;html=1;entryX=1;entryY=0.5;entryDx=0;entryDy=0;" parent="1" source="11" target="24" edge="1">
                    <mxGeometry relative="1" as="geometry">
                        <Array as="points">
                            <mxPoint x="1050" y="490"/>
                        </Array>
                    </mxGeometry>
                </mxCell>
                <mxCell id="11" value="NavigationTop" style="ellipse;whiteSpace=wrap;html=1;align=center;" parent="1" vertex="1">
                    <mxGeometry x="1000" y="270" width="100" height="40" as="geometry"/>
                </mxCell>
                <mxCell id="12" value="NavigationBottom" style="ellipse;whiteSpace=wrap;html=1;align=center;" parent="1" vertex="1">
                    <mxGeometry x="840" y="360" width="100" height="40" as="geometry"/>
                </mxCell>
                <mxCell id="27" style="edgeStyle=orthogonalEdgeStyle;rounded=0;orthogonalLoop=1;jettySize=auto;html=1;entryX=0;entryY=0.5;entryDx=0;entryDy=0;" parent="1" source="19" target="24" edge="1">
                    <mxGeometry relative="1" as="geometry">
                        <Array as="points">
                            <mxPoint x="170" y="490"/>
                        </Array>
                    </mxGeometry>
                </mxCell>
                <mxCell id="19" value="SearchBar" style="ellipse;whiteSpace=wrap;html=1;align=center;" parent="1" vertex="1">
                    <mxGeometry x="120" y="270" width="100" height="40" as="geometry"/>
                </mxCell>
                <mxCell id="28" style="edgeStyle=orthogonalEdgeStyle;rounded=0;orthogonalLoop=1;jettySize=auto;html=1;entryX=0;entryY=0.5;entryDx=0;entryDy=0;" parent="1" source="20" target="24" edge="1">
                    <mxGeometry relative="1" as="geometry">
                        <Array as="points">
                            <mxPoint x="310" y="490"/>
                        </Array>
                    </mxGeometry>
                </mxCell>
                <mxCell id="20" value="RoadBookBottom" style="ellipse;whiteSpace=wrap;html=1;align=center;" parent="1" vertex="1">
                    <mxGeometry x="260" y="350" width="100" height="40" as="geometry"/>
                </mxCell>
                <mxCell id="24" value="RouteManager" style="whiteSpace=wrap;html=1;align=center;" parent="1" vertex="1">
                    <mxGeometry x="550" y="470" width="100" height="40" as="geometry"/>
                </mxCell>
            </root>
        </mxGraphModel>
    </diagram>
    <diagram id="pq0SVCzTCAqghinFG3Lf" name="Post-Refactor">
        <mxGraphModel dx="1081" dy="590" grid="1" gridSize="10" guides="1" tooltips="1" connect="1" arrows="1" fold="1" page="1" pageScale="1" pageWidth="1600" pageHeight="900" math="0" shadow="0">
            <root>
                <mxCell id="sev4cRuL7zpYXe1SFwsI-0"/>
                <mxCell id="sev4cRuL7zpYXe1SFwsI-1" parent="sev4cRuL7zpYXe1SFwsI-0"/>
                <mxCell id="um3hlDOLWynzX1PWz_aD-1" style="edgeStyle=orthogonalEdgeStyle;rounded=0;orthogonalLoop=1;jettySize=auto;html=1;" edge="1" parent="sev4cRuL7zpYXe1SFwsI-1" source="sev4cRuL7zpYXe1SFwsI-2" target="sev4cRuL7zpYXe1SFwsI-4">
                    <mxGeometry relative="1" as="geometry"/>
                </mxCell>
                <mxCell id="um3hlDOLWynzX1PWz_aD-5" style="edgeStyle=orthogonalEdgeStyle;rounded=0;orthogonalLoop=1;jettySize=auto;html=1;" edge="1" parent="sev4cRuL7zpYXe1SFwsI-1" source="sev4cRuL7zpYXe1SFwsI-2" target="um3hlDOLWynzX1PWz_aD-3">
                    <mxGeometry relative="1" as="geometry"/>
                </mxCell>
                <mxCell id="um3hlDOLWynzX1PWz_aD-6" style="edgeStyle=orthogonalEdgeStyle;rounded=0;orthogonalLoop=1;jettySize=auto;html=1;" edge="1" parent="sev4cRuL7zpYXe1SFwsI-1" source="sev4cRuL7zpYXe1SFwsI-2" target="um3hlDOLWynzX1PWz_aD-4">
                    <mxGeometry relative="1" as="geometry"/>
                </mxCell>
                <mxCell id="sev4cRuL7zpYXe1SFwsI-2" value="MapScreen" style="whiteSpace=wrap;html=1;align=center;" parent="sev4cRuL7zpYXe1SFwsI-1" vertex="1">
                    <mxGeometry x="650" y="40" width="100" height="40" as="geometry"/>
                </mxCell>
                <mxCell id="sev4cRuL7zpYXe1SFwsI-4" value="MapboxWidget" style="ellipse;whiteSpace=wrap;html=1;align=center;" parent="sev4cRuL7zpYXe1SFwsI-1" vertex="1">
                    <mxGeometry x="650" y="120" width="100" height="40" as="geometry"/>
                </mxCell>
                <mxCell id="um3hlDOLWynzX1PWz_aD-10" style="edgeStyle=orthogonalEdgeStyle;rounded=0;orthogonalLoop=1;jettySize=auto;html=1;" edge="1" parent="sev4cRuL7zpYXe1SFwsI-1" source="um3hlDOLWynzX1PWz_aD-3" target="um3hlDOLWynzX1PWz_aD-8">
                    <mxGeometry relative="1" as="geometry"/>
                </mxCell>
                <mxCell id="um3hlDOLWynzX1PWz_aD-29" style="edgeStyle=orthogonalEdgeStyle;rounded=0;orthogonalLoop=1;jettySize=auto;html=1;" edge="1" parent="sev4cRuL7zpYXe1SFwsI-1" source="um3hlDOLWynzX1PWz_aD-3" target="um3hlDOLWynzX1PWz_aD-7">
                    <mxGeometry relative="1" as="geometry"/>
                </mxCell>
                <mxCell id="um3hlDOLWynzX1PWz_aD-3" value="TourSelectionView" style="whiteSpace=wrap;html=1;align=center;" vertex="1" parent="sev4cRuL7zpYXe1SFwsI-1">
                    <mxGeometry x="340" y="120" width="100" height="40" as="geometry"/>
                </mxCell>
                <mxCell id="um3hlDOLWynzX1PWz_aD-25" style="edgeStyle=orthogonalEdgeStyle;rounded=0;orthogonalLoop=1;jettySize=auto;html=1;" edge="1" parent="sev4cRuL7zpYXe1SFwsI-1" source="um3hlDOLWynzX1PWz_aD-4" target="um3hlDOLWynzX1PWz_aD-18">
                    <mxGeometry relative="1" as="geometry"/>
                </mxCell>
                <mxCell id="um3hlDOLWynzX1PWz_aD-26" style="edgeStyle=orthogonalEdgeStyle;rounded=0;orthogonalLoop=1;jettySize=auto;html=1;" edge="1" parent="sev4cRuL7zpYXe1SFwsI-1" source="um3hlDOLWynzX1PWz_aD-4" target="um3hlDOLWynzX1PWz_aD-21">
                    <mxGeometry relative="1" as="geometry"/>
                </mxCell>
                <mxCell id="um3hlDOLWynzX1PWz_aD-4" value="NavigationView" style="whiteSpace=wrap;html=1;align=center;" vertex="1" parent="sev4cRuL7zpYXe1SFwsI-1">
                    <mxGeometry x="1020" y="120" width="100" height="40" as="geometry"/>
                </mxCell>
                <mxCell id="um3hlDOLWynzX1PWz_aD-16" style="edgeStyle=orthogonalEdgeStyle;rounded=0;orthogonalLoop=1;jettySize=auto;html=1;" edge="1" parent="sev4cRuL7zpYXe1SFwsI-1" source="um3hlDOLWynzX1PWz_aD-7" target="um3hlDOLWynzX1PWz_aD-11">
                    <mxGeometry relative="1" as="geometry"/>
                </mxCell>
                <mxCell id="um3hlDOLWynzX1PWz_aD-7" value="TourSelection&lt;br&gt;TopWidget" style="ellipse;whiteSpace=wrap;html=1;align=center;" vertex="1" parent="sev4cRuL7zpYXe1SFwsI-1">
                    <mxGeometry x="240" y="200" width="90" height="40" as="geometry"/>
                </mxCell>
                <mxCell id="um3hlDOLWynzX1PWz_aD-14" style="edgeStyle=orthogonalEdgeStyle;rounded=0;orthogonalLoop=1;jettySize=auto;html=1;" edge="1" parent="sev4cRuL7zpYXe1SFwsI-1" source="um3hlDOLWynzX1PWz_aD-8" target="um3hlDOLWynzX1PWz_aD-13">
                    <mxGeometry relative="1" as="geometry"/>
                </mxCell>
                <mxCell id="um3hlDOLWynzX1PWz_aD-15" style="edgeStyle=orthogonalEdgeStyle;rounded=0;orthogonalLoop=1;jettySize=auto;html=1;" edge="1" parent="sev4cRuL7zpYXe1SFwsI-1" source="um3hlDOLWynzX1PWz_aD-8" target="um3hlDOLWynzX1PWz_aD-12">
                    <mxGeometry relative="1" as="geometry"/>
                </mxCell>
                <mxCell id="um3hlDOLWynzX1PWz_aD-8" value="TourSelection&lt;br&gt;BottomWidget" style="ellipse;whiteSpace=wrap;html=1;align=center;" vertex="1" parent="sev4cRuL7zpYXe1SFwsI-1">
                    <mxGeometry x="450" y="200" width="100" height="40" as="geometry"/>
                </mxCell>
                <mxCell id="um3hlDOLWynzX1PWz_aD-11" value="SearchBarWidget" style="ellipse;whiteSpace=wrap;html=1;align=center;" vertex="1" parent="sev4cRuL7zpYXe1SFwsI-1">
                    <mxGeometry x="235" y="300" width="100" height="40" as="geometry"/>
                </mxCell>
                <mxCell id="um3hlDOLWynzX1PWz_aD-12" value="TourSelection&lt;br&gt;BottomSheetWidget" style="ellipse;whiteSpace=wrap;html=1;align=center;" vertex="1" parent="sev4cRuL7zpYXe1SFwsI-1">
                    <mxGeometry x="520" y="300" width="130" height="40" as="geometry"/>
                </mxCell>
                <mxCell id="um3hlDOLWynzX1PWz_aD-13" value="RecenterMapWidget" style="ellipse;whiteSpace=wrap;html=1;align=center;" vertex="1" parent="sev4cRuL7zpYXe1SFwsI-1">
                    <mxGeometry x="360" y="300" width="120" height="40" as="geometry"/>
                </mxCell>
                <mxCell id="um3hlDOLWynzX1PWz_aD-17" style="edgeStyle=orthogonalEdgeStyle;rounded=0;orthogonalLoop=1;jettySize=auto;html=1;" edge="1" source="um3hlDOLWynzX1PWz_aD-18" target="um3hlDOLWynzX1PWz_aD-22" parent="sev4cRuL7zpYXe1SFwsI-1">
                    <mxGeometry relative="1" as="geometry"/>
                </mxCell>
                <mxCell id="um3hlDOLWynzX1PWz_aD-28" style="edgeStyle=orthogonalEdgeStyle;rounded=0;orthogonalLoop=1;jettySize=auto;html=1;" edge="1" parent="sev4cRuL7zpYXe1SFwsI-1" source="um3hlDOLWynzX1PWz_aD-18" target="um3hlDOLWynzX1PWz_aD-27">
                    <mxGeometry relative="1" as="geometry"/>
                </mxCell>
                <mxCell id="um3hlDOLWynzX1PWz_aD-18" value="Navigation&lt;br&gt;TopWidget" style="ellipse;whiteSpace=wrap;html=1;align=center;" vertex="1" parent="sev4cRuL7zpYXe1SFwsI-1">
                    <mxGeometry x="870" y="200" width="80" height="40" as="geometry"/>
                </mxCell>
                <mxCell id="um3hlDOLWynzX1PWz_aD-19" style="edgeStyle=orthogonalEdgeStyle;rounded=0;orthogonalLoop=1;jettySize=auto;html=1;" edge="1" source="um3hlDOLWynzX1PWz_aD-21" target="um3hlDOLWynzX1PWz_aD-24" parent="sev4cRuL7zpYXe1SFwsI-1">
                    <mxGeometry relative="1" as="geometry"/>
                </mxCell>
                <mxCell id="um3hlDOLWynzX1PWz_aD-20" style="edgeStyle=orthogonalEdgeStyle;rounded=0;orthogonalLoop=1;jettySize=auto;html=1;" edge="1" source="um3hlDOLWynzX1PWz_aD-21" target="um3hlDOLWynzX1PWz_aD-23" parent="sev4cRuL7zpYXe1SFwsI-1">
                    <mxGeometry relative="1" as="geometry"/>
                </mxCell>
                <mxCell id="um3hlDOLWynzX1PWz_aD-21" value="Navigation&lt;br&gt;BottomWidget" style="ellipse;whiteSpace=wrap;html=1;align=center;" vertex="1" parent="sev4cRuL7zpYXe1SFwsI-1">
                    <mxGeometry x="1180" y="200" width="100" height="40" as="geometry"/>
                </mxCell>
                <mxCell id="um3hlDOLWynzX1PWz_aD-22" value="UpperNavigationWidget" style="ellipse;whiteSpace=wrap;html=1;align=center;" vertex="1" parent="sev4cRuL7zpYXe1SFwsI-1">
                    <mxGeometry x="750" y="300" width="140" height="40" as="geometry"/>
                </mxCell>
                <mxCell id="um3hlDOLWynzX1PWz_aD-23" value="Navigation&lt;br&gt;BottomSheetWidget" style="ellipse;whiteSpace=wrap;html=1;align=center;" vertex="1" parent="sev4cRuL7zpYXe1SFwsI-1">
                    <mxGeometry x="1250" y="300" width="140" height="40" as="geometry"/>
                </mxCell>
                <mxCell id="um3hlDOLWynzX1PWz_aD-24" value="RecenterMapWidget" style="ellipse;whiteSpace=wrap;html=1;align=center;" vertex="1" parent="sev4cRuL7zpYXe1SFwsI-1">
                    <mxGeometry x="1090" y="300" width="120" height="40" as="geometry"/>
                </mxCell>
                <mxCell id="um3hlDOLWynzX1PWz_aD-27" value="LowerNavigationWidget" style="ellipse;whiteSpace=wrap;html=1;align=center;" vertex="1" parent="sev4cRuL7zpYXe1SFwsI-1">
                    <mxGeometry x="930" y="300" width="140" height="40" as="geometry"/>
                </mxCell>
            </root>
        </mxGraphModel>
    </diagram>
    <diagram id="p0m3LLsKQnWyAnRdelxG" name="States-Events">
        <mxGraphModel dx="1081" dy="590" grid="1" gridSize="10" guides="1" tooltips="1" connect="1" arrows="1" fold="1" page="1" pageScale="1" pageWidth="1600" pageHeight="900" background="none" math="0" shadow="0">
            <root>
                <mxCell id="5jSFalaHOjMHX3Uw32-9-0"/>
                <mxCell id="5jSFalaHOjMHX3Uw32-9-1" parent="5jSFalaHOjMHX3Uw32-9-0"/>
                <mxCell id="8-YAZ9Mi2m4vrEJJAGKF-0" value="App" style="shape=ext;double=1;rounded=1;whiteSpace=wrap;html=1;labelPosition=center;verticalLabelPosition=top;align=center;verticalAlign=bottom;" parent="5jSFalaHOjMHX3Uw32-9-1" vertex="1">
                    <mxGeometry y="20" width="400" height="320" as="geometry"/>
                </mxCell>
                <mxCell id="8-YAZ9Mi2m4vrEJJAGKF-1" style="edgeStyle=orthogonalEdgeStyle;rounded=0;orthogonalLoop=1;jettySize=auto;html=1;entryX=0;entryY=0.5;entryDx=0;entryDy=0;" parent="5jSFalaHOjMHX3Uw32-9-1" source="5jSFalaHOjMHX3Uw32-9-3" target="5jSFalaHOjMHX3Uw32-9-8" edge="1">
                    <mxGeometry relative="1" as="geometry"/>
                </mxCell>
                <mxCell id="5jSFalaHOjMHX3Uw32-9-3" value="AppInitial" style="ellipse;whiteSpace=wrap;html=1;align=center;" parent="5jSFalaHOjMHX3Uw32-9-1" vertex="1">
                    <mxGeometry x="20" y="40" width="100" height="40" as="geometry"/>
                </mxCell>
                <mxCell id="IlqTLJep3lt7TaHEDIKr-0" style="edgeStyle=orthogonalEdgeStyle;rounded=0;orthogonalLoop=1;jettySize=auto;html=1;" parent="5jSFalaHOjMHX3Uw32-9-1" source="5jSFalaHOjMHX3Uw32-9-5" target="5jSFalaHOjMHX3Uw32-9-6" edge="1">
                    <mxGeometry relative="1" as="geometry"/>
                </mxCell>
                <mxCell id="IlqTLJep3lt7TaHEDIKr-1" style="edgeStyle=orthogonalEdgeStyle;rounded=0;orthogonalLoop=1;jettySize=auto;html=1;" parent="5jSFalaHOjMHX3Uw32-9-1" source="5jSFalaHOjMHX3Uw32-9-5" target="5jSFalaHOjMHX3Uw32-9-7" edge="1">
                    <mxGeometry relative="1" as="geometry"/>
                </mxCell>
                <mxCell id="5jSFalaHOjMHX3Uw32-9-5" value="AppLoadInProgress" style="ellipse;whiteSpace=wrap;html=1;align=center;" parent="5jSFalaHOjMHX3Uw32-9-1" vertex="1">
                    <mxGeometry x="135" y="120" width="130" height="40" as="geometry"/>
                </mxCell>
                <mxCell id="5jSFalaHOjMHX3Uw32-9-6" value="AppLoadSuccess" style="ellipse;whiteSpace=wrap;html=1;align=center;" parent="5jSFalaHOjMHX3Uw32-9-1" vertex="1">
                    <mxGeometry x="20" y="280" width="130" height="40" as="geometry"/>
                </mxCell>
                <mxCell id="5jSFalaHOjMHX3Uw32-9-7" value="AppLoadFailure" style="ellipse;whiteSpace=wrap;html=1;align=center;" parent="5jSFalaHOjMHX3Uw32-9-1" vertex="1">
                    <mxGeometry x="250" y="280" width="130" height="40" as="geometry"/>
                </mxCell>
                <mxCell id="5jSFalaHOjMHX3Uw32-9-15" style="edgeStyle=orthogonalEdgeStyle;rounded=0;orthogonalLoop=1;jettySize=auto;html=1;exitX=0.5;exitY=1;exitDx=0;exitDy=0;" parent="5jSFalaHOjMHX3Uw32-9-1" source="5jSFalaHOjMHX3Uw32-9-8" target="5jSFalaHOjMHX3Uw32-9-5" edge="1">
                    <mxGeometry relative="1" as="geometry"/>
                </mxCell>
                <mxCell id="5jSFalaHOjMHX3Uw32-9-8" value="AppStarted" style="ellipse;whiteSpace=wrap;html=1;align=center;dashed=1;" parent="5jSFalaHOjMHX3Uw32-9-1" vertex="1">
                    <mxGeometry x="150" y="40" width="100" height="40" as="geometry"/>
                </mxCell>
                <mxCell id="8-YAZ9Mi2m4vrEJJAGKF-3" value="Map" style="shape=ext;double=1;rounded=1;whiteSpace=wrap;html=1;labelPosition=center;verticalLabelPosition=top;align=center;verticalAlign=bottom;" parent="5jSFalaHOjMHX3Uw32-9-1" vertex="1">
                    <mxGeometry x="440" y="20" width="400" height="320" as="geometry"/>
                </mxCell>
                <mxCell id="8-YAZ9Mi2m4vrEJJAGKF-4" style="edgeStyle=orthogonalEdgeStyle;rounded=0;orthogonalLoop=1;jettySize=auto;html=1;entryX=0;entryY=0.5;entryDx=0;entryDy=0;" parent="5jSFalaHOjMHX3Uw32-9-1" source="8-YAZ9Mi2m4vrEJJAGKF-5" target="8-YAZ9Mi2m4vrEJJAGKF-11" edge="1">
                    <mxGeometry relative="1" as="geometry"/>
                </mxCell>
                <mxCell id="8-YAZ9Mi2m4vrEJJAGKF-5" value="MapInitial" style="ellipse;whiteSpace=wrap;html=1;align=center;" parent="5jSFalaHOjMHX3Uw32-9-1" vertex="1">
                    <mxGeometry x="460" y="40" width="100" height="40" as="geometry"/>
                </mxCell>
                <mxCell id="8-YAZ9Mi2m4vrEJJAGKF-7" value="MapRouteViewActive" style="ellipse;whiteSpace=wrap;html=1;align=center;" parent="5jSFalaHOjMHX3Uw32-9-1" vertex="1">
                    <mxGeometry x="690" y="280" width="130" height="40" as="geometry"/>
                </mxCell>
                <mxCell id="8-YAZ9Mi2m4vrEJJAGKF-8" value="MapNavigationViewActive" style="ellipse;whiteSpace=wrap;html=1;align=center;" parent="5jSFalaHOjMHX3Uw32-9-1" vertex="1">
                    <mxGeometry x="460" y="280" width="130" height="40" as="geometry"/>
                </mxCell>
                <mxCell id="IlqTLJep3lt7TaHEDIKr-3" style="edgeStyle=orthogonalEdgeStyle;rounded=0;orthogonalLoop=1;jettySize=auto;html=1;" parent="5jSFalaHOjMHX3Uw32-9-1" source="8-YAZ9Mi2m4vrEJJAGKF-11" target="IlqTLJep3lt7TaHEDIKr-2" edge="1">
                    <mxGeometry relative="1" as="geometry"/>
                </mxCell>
                <mxCell id="8-YAZ9Mi2m4vrEJJAGKF-11" value="MapStarted" style="ellipse;whiteSpace=wrap;html=1;align=center;dashed=1;" parent="5jSFalaHOjMHX3Uw32-9-1" vertex="1">
                    <mxGeometry x="590" y="40" width="100" height="40" as="geometry"/>
                </mxCell>
                <mxCell id="8-YAZ9Mi2m4vrEJJAGKF-12" style="edgeStyle=orthogonalEdgeStyle;rounded=0;orthogonalLoop=1;jettySize=auto;html=1;" parent="5jSFalaHOjMHX3Uw32-9-1" source="8-YAZ9Mi2m4vrEJJAGKF-14" target="8-YAZ9Mi2m4vrEJJAGKF-8" edge="1">
                    <mxGeometry relative="1" as="geometry"/>
                </mxCell>
                <mxCell id="8-YAZ9Mi2m4vrEJJAGKF-14" value="MapNavigationStarted" style="ellipse;whiteSpace=wrap;html=1;align=center;dashed=1;" parent="5jSFalaHOjMHX3Uw32-9-1" vertex="1">
                    <mxGeometry x="475" y="200" width="100" height="40" as="geometry"/>
                </mxCell>
                <mxCell id="8-YAZ9Mi2m4vrEJJAGKF-17" style="edgeStyle=orthogonalEdgeStyle;rounded=0;orthogonalLoop=1;jettySize=auto;html=1;" parent="5jSFalaHOjMHX3Uw32-9-1" source="8-YAZ9Mi2m4vrEJJAGKF-15" target="8-YAZ9Mi2m4vrEJJAGKF-7" edge="1">
                    <mxGeometry relative="1" as="geometry"/>
                </mxCell>
                <mxCell id="8-YAZ9Mi2m4vrEJJAGKF-15" value="MapRouteViewStarted" style="ellipse;whiteSpace=wrap;html=1;align=center;dashed=1;" parent="5jSFalaHOjMHX3Uw32-9-1" vertex="1">
                    <mxGeometry x="705" y="200" width="100" height="40" as="geometry"/>
                </mxCell>
                <mxCell id="8-YAZ9Mi2m4vrEJJAGKF-18" value="RouteView" style="shape=ext;double=1;rounded=1;whiteSpace=wrap;html=1;labelPosition=center;verticalLabelPosition=top;align=center;verticalAlign=bottom;" parent="5jSFalaHOjMHX3Uw32-9-1" vertex="1">
                    <mxGeometry x="440" y="360" width="400" height="320" as="geometry"/>
                </mxCell>
                <mxCell id="8-YAZ9Mi2m4vrEJJAGKF-19" style="edgeStyle=orthogonalEdgeStyle;rounded=0;orthogonalLoop=1;jettySize=auto;html=1;entryX=0;entryY=0.5;entryDx=0;entryDy=0;" parent="5jSFalaHOjMHX3Uw32-9-1" source="8-YAZ9Mi2m4vrEJJAGKF-20" target="8-YAZ9Mi2m4vrEJJAGKF-24" edge="1">
                    <mxGeometry relative="1" as="geometry"/>
                </mxCell>
                <mxCell id="8-YAZ9Mi2m4vrEJJAGKF-20" value="RouteViewInitial" style="ellipse;whiteSpace=wrap;html=1;align=center;" parent="5jSFalaHOjMHX3Uw32-9-1" vertex="1">
                    <mxGeometry x="460" y="380" width="100" height="40" as="geometry"/>
                </mxCell>
                <mxCell id="8-YAZ9Mi2m4vrEJJAGKF-21" value="MapRouteViewActive" style="ellipse;whiteSpace=wrap;html=1;align=center;" parent="5jSFalaHOjMHX3Uw32-9-1" vertex="1">
                    <mxGeometry x="690" y="620" width="130" height="40" as="geometry"/>
                </mxCell>
                <mxCell id="8-YAZ9Mi2m4vrEJJAGKF-22" value="MapNavigationViewActive" style="ellipse;whiteSpace=wrap;html=1;align=center;" parent="5jSFalaHOjMHX3Uw32-9-1" vertex="1">
                    <mxGeometry x="460" y="620" width="130" height="40" as="geometry"/>
                </mxCell>
                <mxCell id="8-YAZ9Mi2m4vrEJJAGKF-23" style="edgeStyle=orthogonalEdgeStyle;rounded=0;orthogonalLoop=1;jettySize=auto;html=1;" parent="5jSFalaHOjMHX3Uw32-9-1" source="8-YAZ9Mi2m4vrEJJAGKF-24" target="8-YAZ9Mi2m4vrEJJAGKF-21" edge="1">
                    <mxGeometry relative="1" as="geometry">
                        <Array as="points">
                            <mxPoint x="640" y="640"/>
                        </Array>
                    </mxGeometry>
                </mxCell>
                <mxCell id="8-YAZ9Mi2m4vrEJJAGKF-24" value="RouteViewStarted" style="ellipse;whiteSpace=wrap;html=1;align=center;dashed=1;" parent="5jSFalaHOjMHX3Uw32-9-1" vertex="1">
                    <mxGeometry x="590" y="380" width="100" height="40" as="geometry"/>
                </mxCell>
                <mxCell id="8-YAZ9Mi2m4vrEJJAGKF-25" style="edgeStyle=orthogonalEdgeStyle;rounded=0;orthogonalLoop=1;jettySize=auto;html=1;" parent="5jSFalaHOjMHX3Uw32-9-1" source="8-YAZ9Mi2m4vrEJJAGKF-26" target="8-YAZ9Mi2m4vrEJJAGKF-22" edge="1">
                    <mxGeometry relative="1" as="geometry"/>
                </mxCell>
                <mxCell id="8-YAZ9Mi2m4vrEJJAGKF-26" value="MapNavigationStarted" style="ellipse;whiteSpace=wrap;html=1;align=center;dashed=1;" parent="5jSFalaHOjMHX3Uw32-9-1" vertex="1">
                    <mxGeometry x="475" y="540" width="100" height="40" as="geometry"/>
                </mxCell>
                <mxCell id="8-YAZ9Mi2m4vrEJJAGKF-27" style="edgeStyle=orthogonalEdgeStyle;rounded=0;orthogonalLoop=1;jettySize=auto;html=1;" parent="5jSFalaHOjMHX3Uw32-9-1" source="8-YAZ9Mi2m4vrEJJAGKF-28" target="8-YAZ9Mi2m4vrEJJAGKF-21" edge="1">
                    <mxGeometry relative="1" as="geometry"/>
                </mxCell>
                <mxCell id="8-YAZ9Mi2m4vrEJJAGKF-28" value="MapRouteViewStarted" style="ellipse;whiteSpace=wrap;html=1;align=center;dashed=1;" parent="5jSFalaHOjMHX3Uw32-9-1" vertex="1">
                    <mxGeometry x="705" y="540" width="100" height="40" as="geometry"/>
                </mxCell>
                <mxCell id="IlqTLJep3lt7TaHEDIKr-4" style="edgeStyle=orthogonalEdgeStyle;rounded=0;orthogonalLoop=1;jettySize=auto;html=1;entryX=0;entryY=0.5;entryDx=0;entryDy=0;" parent="5jSFalaHOjMHX3Uw32-9-1" source="IlqTLJep3lt7TaHEDIKr-2" target="8-YAZ9Mi2m4vrEJJAGKF-7" edge="1">
                    <mxGeometry relative="1" as="geometry"/>
                </mxCell>
                <mxCell id="IlqTLJep3lt7TaHEDIKr-2" value="MapLoadInProgress" style="ellipse;whiteSpace=wrap;html=1;align=center;" parent="5jSFalaHOjMHX3Uw32-9-1" vertex="1">
                    <mxGeometry x="575" y="130" width="130" height="40" as="geometry"/>
                </mxCell>
            </root>
        </mxGraphModel>
    </diagram>
    <diagram id="oy27AfWAMN3NLDdRM0WP" name="Bloc Dependencies">
        <mxGraphModel dx="1081" dy="590" grid="1" gridSize="10" guides="1" tooltips="1" connect="1" arrows="1" fold="1" page="1" pageScale="1" pageWidth="1600" pageHeight="900" math="0" shadow="0">
            <root>
                <mxCell id="EKSRh1uzUG-L18_NHK-o-0"/>
                <mxCell id="EKSRh1uzUG-L18_NHK-o-1" parent="EKSRh1uzUG-L18_NHK-o-0"/>
                <mxCell id="L80ju-dCEfHGjvty6myX-49" value="Builder" style="edgeStyle=orthogonalEdgeStyle;rounded=0;orthogonalLoop=1;jettySize=auto;html=1;" edge="1" parent="EKSRh1uzUG-L18_NHK-o-1" source="EKSRh1uzUG-L18_NHK-o-2" target="L80ju-dCEfHGjvty6myX-17">
                    <mxGeometry relative="1" as="geometry">
                        <Array as="points">
                            <mxPoint x="1090" y="500"/>
                        </Array>
                    </mxGeometry>
                </mxCell>
                <mxCell id="EKSRh1uzUG-L18_NHK-o-2" value="HeightMapBloc" style="ellipse;whiteSpace=wrap;html=1;align=center;" vertex="1" parent="EKSRh1uzUG-L18_NHK-o-1">
                    <mxGeometry x="780" y="480" width="100" height="40" as="geometry"/>
                </mxCell>
                <mxCell id="L80ju-dCEfHGjvty6myX-31" value="Read state" style="edgeStyle=orthogonalEdgeStyle;rounded=0;orthogonalLoop=1;jettySize=auto;html=1;" edge="1" parent="EKSRh1uzUG-L18_NHK-o-1" source="L80ju-dCEfHGjvty6myX-10" target="EKSRh1uzUG-L18_NHK-o-3">
                    <mxGeometry relative="1" as="geometry"/>
                </mxCell>
                <mxCell id="EKSRh1uzUG-L18_NHK-o-3" value="MapBloc" style="ellipse;whiteSpace=wrap;html=1;align=center;" vertex="1" parent="EKSRh1uzUG-L18_NHK-o-1">
                    <mxGeometry x="900" y="250" width="100" height="40" as="geometry"/>
                </mxCell>
                <mxCell id="L80ju-dCEfHGjvty6myX-37" value="Builder" style="edgeStyle=orthogonalEdgeStyle;rounded=0;orthogonalLoop=1;jettySize=auto;html=1;" edge="1" parent="EKSRh1uzUG-L18_NHK-o-1" source="EKSRh1uzUG-L18_NHK-o-4" target="L80ju-dCEfHGjvty6myX-18">
                    <mxGeometry relative="1" as="geometry"/>
                </mxCell>
                <mxCell id="L80ju-dCEfHGjvty6myX-40" value="Builder" style="edgeStyle=orthogonalEdgeStyle;rounded=0;orthogonalLoop=1;jettySize=auto;html=1;" edge="1" parent="EKSRh1uzUG-L18_NHK-o-1" source="EKSRh1uzUG-L18_NHK-o-4" target="L80ju-dCEfHGjvty6myX-4">
                    <mxGeometry x="0.2754" relative="1" as="geometry">
                        <Array as="points">
                            <mxPoint x="450" y="200"/>
                        </Array>
                        <mxPoint as="offset"/>
                    </mxGeometry>
                </mxCell>
                <mxCell id="EKSRh1uzUG-L18_NHK-o-4" value="MapboxBloc" style="ellipse;whiteSpace=wrap;html=1;align=center;" vertex="1" parent="EKSRh1uzUG-L18_NHK-o-1">
                    <mxGeometry x="360" y="250" width="100" height="40" as="geometry"/>
                </mxCell>
                <mxCell id="L80ju-dCEfHGjvty6myX-38" value="RecenterMap" style="edgeStyle=orthogonalEdgeStyle;rounded=0;orthogonalLoop=1;jettySize=auto;html=1;jumpStyle=none;" edge="1" parent="EKSRh1uzUG-L18_NHK-o-1" source="EKSRh1uzUG-L18_NHK-o-5" target="EKSRh1uzUG-L18_NHK-o-4">
                    <mxGeometry x="-0.1111" relative="1" as="geometry">
                        <Array as="points">
                            <mxPoint x="410" y="500"/>
                        </Array>
                        <mxPoint as="offset"/>
                    </mxGeometry>
                </mxCell>
                <mxCell id="EKSRh1uzUG-L18_NHK-o-5" value="NavigationBloc" style="ellipse;whiteSpace=wrap;html=1;align=center;" vertex="1" parent="EKSRh1uzUG-L18_NHK-o-1">
                    <mxGeometry x="470" y="480" width="100" height="40" as="geometry"/>
                </mxCell>
                <mxCell id="L80ju-dCEfHGjvty6myX-48" value="Init" style="edgeStyle=orthogonalEdgeStyle;rounded=0;orthogonalLoop=1;jettySize=auto;html=1;" edge="1" parent="EKSRh1uzUG-L18_NHK-o-1" source="EKSRh1uzUG-L18_NHK-o-6" target="EKSRh1uzUG-L18_NHK-o-2">
                    <mxGeometry relative="1" as="geometry"/>
                </mxCell>
                <mxCell id="L80ju-dCEfHGjvty6myX-50" value="Init" style="edgeStyle=orthogonalEdgeStyle;rounded=0;jumpStyle=none;orthogonalLoop=1;jettySize=auto;html=1;" edge="1" parent="EKSRh1uzUG-L18_NHK-o-1" source="EKSRh1uzUG-L18_NHK-o-6" target="EKSRh1uzUG-L18_NHK-o-5">
                    <mxGeometry relative="1" as="geometry"/>
                </mxCell>
                <mxCell id="L80ju-dCEfHGjvty6myX-51" value="Builder" style="edgeStyle=orthogonalEdgeStyle;rounded=0;jumpStyle=none;orthogonalLoop=1;jettySize=auto;html=1;entryX=0.755;entryY=1.013;entryDx=0;entryDy=0;entryPerimeter=0;" edge="1" parent="EKSRh1uzUG-L18_NHK-o-1" source="EKSRh1uzUG-L18_NHK-o-6" target="L80ju-dCEfHGjvty6myX-17">
                    <mxGeometry relative="1" as="geometry">
                        <Array as="points">
                            <mxPoint x="690" y="560"/>
                            <mxPoint x="1148" y="560"/>
                        </Array>
                    </mxGeometry>
                </mxCell>
                <mxCell id="EKSRh1uzUG-L18_NHK-o-6" value="TourBloc" style="ellipse;whiteSpace=wrap;html=1;align=center;" vertex="1" parent="EKSRh1uzUG-L18_NHK-o-1">
                    <mxGeometry x="620" y="480" width="100" height="40" as="geometry"/>
                </mxCell>
                <mxCell id="L80ju-dCEfHGjvty6myX-29" style="edgeStyle=orthogonalEdgeStyle;rounded=0;orthogonalLoop=1;jettySize=auto;html=1;" edge="1" parent="EKSRh1uzUG-L18_NHK-o-1" source="EKSRh1uzUG-L18_NHK-o-3" target="L80ju-dCEfHGjvty6myX-35">
                    <mxGeometry relative="1" as="geometry">
                        <mxPoint x="950" y="190" as="targetPoint"/>
                    </mxGeometry>
                </mxCell>
                <mxCell id="L80ju-dCEfHGjvty6myX-30" value="Builder" style="edgeLabel;html=1;align=center;verticalAlign=middle;resizable=0;points=[];" vertex="1" connectable="0" parent="L80ju-dCEfHGjvty6myX-29">
                    <mxGeometry x="0.2464" y="-2" relative="1" as="geometry">
                        <mxPoint x="12.35" y="2" as="offset"/>
                    </mxGeometry>
                </mxCell>
                <mxCell id="L80ju-dCEfHGjvty6myX-4" value="MapboxWidget" style="ellipse;whiteSpace=wrap;html=1;align=center;" vertex="1" parent="EKSRh1uzUG-L18_NHK-o-1">
                    <mxGeometry x="530" y="180" width="100" height="40" as="geometry"/>
                </mxCell>
                <mxCell id="L80ju-dCEfHGjvty6myX-10" value="NavigationView" style="whiteSpace=wrap;html=1;align=center;" vertex="1" parent="EKSRh1uzUG-L18_NHK-o-1">
                    <mxGeometry x="900" y="360" width="100" height="40" as="geometry"/>
                </mxCell>
                <mxCell id="L80ju-dCEfHGjvty6myX-52" value="Init" style="edgeStyle=orthogonalEdgeStyle;rounded=0;jumpStyle=none;orthogonalLoop=1;jettySize=auto;html=1;" edge="1" parent="EKSRh1uzUG-L18_NHK-o-1" source="L80ju-dCEfHGjvty6myX-16" target="EKSRh1uzUG-L18_NHK-o-6">
                    <mxGeometry relative="1" as="geometry">
                        <Array as="points">
                            <mxPoint x="660" y="570"/>
                            <mxPoint x="660" y="570"/>
                        </Array>
                    </mxGeometry>
                </mxCell>
                <mxCell id="L80ju-dCEfHGjvty6myX-16" value="SearchBarWidget" style="ellipse;whiteSpace=wrap;html=1;align=center;" vertex="1" parent="EKSRh1uzUG-L18_NHK-o-1">
                    <mxGeometry x="610" y="580" width="100" height="40" as="geometry"/>
                </mxCell>
                <mxCell id="L80ju-dCEfHGjvty6myX-33" value="NavigationViewActivated" style="edgeStyle=orthogonalEdgeStyle;rounded=0;orthogonalLoop=1;jettySize=auto;html=1;" edge="1" parent="EKSRh1uzUG-L18_NHK-o-1" source="L80ju-dCEfHGjvty6myX-17" target="EKSRh1uzUG-L18_NHK-o-3">
                    <mxGeometry relative="1" as="geometry">
                        <Array as="points">
                            <mxPoint x="1125" y="270"/>
                        </Array>
                    </mxGeometry>
                </mxCell>
                <mxCell id="L80ju-dCEfHGjvty6myX-17" value="TourSelection&lt;br&gt;BottomSheetWidget" style="ellipse;whiteSpace=wrap;html=1;align=center;" vertex="1" parent="EKSRh1uzUG-L18_NHK-o-1">
                    <mxGeometry x="1050" y="360" width="130" height="40" as="geometry"/>
                </mxCell>
                <mxCell id="L80ju-dCEfHGjvty6myX-18" value="RecenterMapWidget" style="ellipse;whiteSpace=wrap;html=1;align=center;" vertex="1" parent="EKSRh1uzUG-L18_NHK-o-1">
                    <mxGeometry x="160" y="250" width="120" height="40" as="geometry"/>
                </mxCell>
                <mxCell id="L80ju-dCEfHGjvty6myX-32" value="TourSelectionViewActivated" style="edgeStyle=orthogonalEdgeStyle;rounded=0;orthogonalLoop=1;jettySize=auto;html=1;" edge="1" parent="EKSRh1uzUG-L18_NHK-o-1" source="L80ju-dCEfHGjvty6myX-26" target="EKSRh1uzUG-L18_NHK-o-3">
                    <mxGeometry relative="1" as="geometry">
                        <Array as="points">
                            <mxPoint x="950" y="170"/>
                        </Array>
                    </mxGeometry>
                </mxCell>
                <mxCell id="L80ju-dCEfHGjvty6myX-26" value="Navigation&lt;br&gt;BottomSheetWidget" style="ellipse;whiteSpace=wrap;html=1;align=center;" vertex="1" parent="EKSRh1uzUG-L18_NHK-o-1">
                    <mxGeometry x="880" y="140" width="140" height="40" as="geometry"/>
                </mxCell>
                <mxCell id="L80ju-dCEfHGjvty6myX-36" value="RecenterMap" style="edgeStyle=orthogonalEdgeStyle;rounded=0;orthogonalLoop=1;jettySize=auto;html=1;" edge="1" parent="EKSRh1uzUG-L18_NHK-o-1" source="L80ju-dCEfHGjvty6myX-34" target="EKSRh1uzUG-L18_NHK-o-4">
                    <mxGeometry relative="1" as="geometry"/>
                </mxCell>
                <mxCell id="L80ju-dCEfHGjvty6myX-34" value="MapboxController" style="whiteSpace=wrap;html=1;align=center;" vertex="1" parent="EKSRh1uzUG-L18_NHK-o-1">
                    <mxGeometry x="360" y="140" width="100" height="40" as="geometry"/>
                </mxCell>
                <mxCell id="L80ju-dCEfHGjvty6myX-39" value="Provider + Init" style="edgeStyle=orthogonalEdgeStyle;rounded=0;orthogonalLoop=1;jettySize=auto;html=1;" edge="1" parent="EKSRh1uzUG-L18_NHK-o-1" source="L80ju-dCEfHGjvty6myX-35" target="EKSRh1uzUG-L18_NHK-o-4">
                    <mxGeometry relative="1" as="geometry"/>
                </mxCell>
                <mxCell id="L80ju-dCEfHGjvty6myX-41" value="RecenterMap" style="edgeStyle=orthogonalEdgeStyle;rounded=0;orthogonalLoop=1;jettySize=auto;html=1;entryX=1;entryY=1;entryDx=0;entryDy=0;" edge="1" parent="EKSRh1uzUG-L18_NHK-o-1" source="L80ju-dCEfHGjvty6myX-35" target="EKSRh1uzUG-L18_NHK-o-4">
                    <mxGeometry relative="1" as="geometry">
                        <Array as="points">
                            <mxPoint x="710" y="300"/>
                            <mxPoint x="445" y="300"/>
                        </Array>
                    </mxGeometry>
                </mxCell>
                <mxCell id="L80ju-dCEfHGjvty6myX-42" value="Provider + Start + Stop" style="edgeStyle=orthogonalEdgeStyle;rounded=0;orthogonalLoop=1;jettySize=auto;html=1;" edge="1" parent="EKSRh1uzUG-L18_NHK-o-1" source="L80ju-dCEfHGjvty6myX-35" target="EKSRh1uzUG-L18_NHK-o-5">
                    <mxGeometry x="0.8095" relative="1" as="geometry">
                        <Array as="points">
                            <mxPoint x="750" y="340"/>
                            <mxPoint x="520" y="340"/>
                        </Array>
                        <mxPoint as="offset"/>
                    </mxGeometry>
                </mxCell>
                <mxCell id="L80ju-dCEfHGjvty6myX-44" style="edgeStyle=orthogonalEdgeStyle;rounded=0;orthogonalLoop=1;jettySize=auto;html=1;" edge="1" parent="EKSRh1uzUG-L18_NHK-o-1" source="L80ju-dCEfHGjvty6myX-35" target="EKSRh1uzUG-L18_NHK-o-6">
                    <mxGeometry relative="1" as="geometry">
                        <Array as="points">
                            <mxPoint x="770" y="400"/>
                            <mxPoint x="670" y="400"/>
                        </Array>
                    </mxGeometry>
                </mxCell>
                <mxCell id="L80ju-dCEfHGjvty6myX-47" value="Provider" style="edgeLabel;html=1;align=center;verticalAlign=middle;resizable=0;points=[];" vertex="1" connectable="0" parent="L80ju-dCEfHGjvty6myX-44">
                    <mxGeometry x="0.5879" relative="1" as="geometry">
                        <mxPoint y="20" as="offset"/>
                    </mxGeometry>
                </mxCell>
                <mxCell id="L80ju-dCEfHGjvty6myX-45" style="edgeStyle=orthogonalEdgeStyle;rounded=0;orthogonalLoop=1;jettySize=auto;html=1;" edge="1" parent="EKSRh1uzUG-L18_NHK-o-1" source="L80ju-dCEfHGjvty6myX-35" target="EKSRh1uzUG-L18_NHK-o-2">
                    <mxGeometry relative="1" as="geometry">
                        <Array as="points">
                            <mxPoint x="790" y="320"/>
                            <mxPoint x="830" y="320"/>
                        </Array>
                    </mxGeometry>
                </mxCell>
                <mxCell id="L80ju-dCEfHGjvty6myX-46" value="Provider" style="edgeLabel;html=1;align=center;verticalAlign=middle;resizable=0;points=[];" vertex="1" connectable="0" parent="L80ju-dCEfHGjvty6myX-45">
                    <mxGeometry x="0.3182" relative="1" as="geometry">
                        <mxPoint y="41.33" as="offset"/>
                    </mxGeometry>
                </mxCell>
                <mxCell id="L80ju-dCEfHGjvty6myX-35" value="MapScreen" style="ellipse;whiteSpace=wrap;html=1;align=center;" vertex="1" parent="EKSRh1uzUG-L18_NHK-o-1">
                    <mxGeometry x="700" y="250" width="100" height="40" as="geometry"/>
                </mxCell>
            </root>
        </mxGraphModel>
    </diagram>
</mxfile>